<?xml version="1.0" standalone="no"?>
<!DOCTYPE svg PUBLIC "-//W3C//DTD SVG 20010904//EN"
 "http://www.w3.org/TR/2001/REC-SVG-20010904/DTD/svg10.dtd">
<svg version="1.0" xmlns="http://www.w3.org/2000/svg"
 width="1080.000000pt" height="1080.000000pt" viewBox="0 0 1080.000000 1080.000000"
 preserveAspectRatio="xMidYMid meet">
<metadata>
Created by potrace 1.14, written by Peter Selinger 2001-2017
</metadata>
<g transform="translate(0.000000,1080.000000) scale(0.100000,-0.100000)"
fill="#000000" stroke="none">
<path d="M5178 10795 c-2 -1 -55 -5 -118 -9 -63 -4 -126 -8 -140 -10 -14 -2
-61 -7 -104 -11 -43 -4 -88 -9 -100 -11 -12 -2 -41 -7 -66 -10 -25 -3 -54 -8
-64 -11 -11 -3 -34 -7 -52 -9 -55 -5 -269 -50 -424 -89 -528 -132 -1068 -360
-1515 -638 -179 -111 -495 -332 -525 -366 -3 -3 -27 -24 -55 -46 -211 -167
-515 -462 -706 -686 -99 -116 -102 -120 -202 -251 -335 -439 -600 -929 -795
-1468 -34 -95 -110 -336 -117 -371 -2 -12 -9 -36 -14 -53 -6 -17 -12 -42 -15
-56 -2 -14 -15 -72 -29 -130 -14 -58 -28 -123 -33 -145 -4 -22 -8 -44 -9 -50
-2 -5 -6 -28 -9 -50 -4 -22 -8 -47 -11 -55 -2 -8 -6 -37 -10 -65 -3 -27 -8
-59 -10 -70 -3 -11 -7 -40 -9 -65 -3 -25 -8 -67 -11 -95 -23 -197 -30 -326
-30 -610 1 -242 7 -435 19 -525 2 -14 7 -56 10 -93 4 -37 9 -76 10 -85 4 -18
15 -95 22 -152 5 -41 42 -244 51 -280 3 -14 8 -34 10 -45 29 -153 157 -587
213 -720 4 -11 23 -58 41 -105 18 -47 45 -113 61 -148 15 -34 28 -64 28 -67 0
-2 29 -64 65 -138 95 -198 220 -420 360 -639 84 -132 209 -297 371 -493 555
-670 1282 -1205 2088 -1539 83 -34 180 -73 216 -85 36 -13 74 -27 85 -32 79
-34 539 -160 690 -189 33 -6 71 -14 85 -18 35 -10 1988 -9 2030 1 19 4 76 17
125 28 170 37 521 134 605 166 8 3 20 7 25 8 13 3 274 103 300 114 11 5 46 21
77 35 31 14 60 26 63 26 8 0 364 178 420 210 22 13 60 34 85 48 166 93 611
395 650 442 3 3 25 21 50 40 25 19 47 37 50 40 3 3 37 32 75 65 124 107 147
128 295 275 136 136 218 225 320 345 23 28 52 61 63 75 12 14 69 88 127 165
356 470 641 1018 823 1580 61 187 139 485 160 610 3 17 11 55 17 86 12 66 9
1952 -4 2009 -4 19 -19 85 -33 145 -13 61 -26 117 -28 125 -2 8 -11 44 -20 80
-9 36 -18 72 -20 80 -15 75 -154 475 -220 635 -193 463 -478 946 -766 1300
-428 524 -852 900 -1403 1244 -379 236 -822 439 -1241 566 -202 62 -519 140
-645 159 -19 2 -91 14 -160 25 -120 19 -153 23 -300 37 -36 3 -81 8 -100 10
-39 5 -667 14 -672 9z"/>
</g>
</svg>
